<?xml version="1.0" encoding="UTF-8"?>
<svg version="1.1" xmlns="http://www.w3.org/2000/svg" width="16" height="16" color="#000" shape-rendering="crispEdges" viewBox="0 0 16 16"><title>Seldon icon, mask, 16 px (hand-hinted)</title><desc>Hand-hinted pixel version, not downsampled. 15 x 15 on the 16 grid, 1 px envelope, 3 px tips, 3 px plus core (approved in round 1).</desc><g id="mask" fill="currentColor"><rect width="1" height="1" x="7"/><rect width="1" height="1" x="7" y="1"/><rect width="1" height="1" x="7" y="2"/><rect width="1" height="1" x="6" y="3"/><rect width="1" height="1" x="8" y="3"/><rect width="1" height="1" x="6" y="4"/><rect width="1" height="1" x="8" y="4"/><rect width="1" height="1" x="5" y="5"/><rect width="1" height="1" x="9" y="5"/><rect width="2" height="1" x="3" y="6"/><rect width="1" height="1" x="7" y="6"/><rect width="2" height="1" x="10" y="6"/><rect width="3" height="1" y="7"/><rect width="3" height="1" x="6" y="7"/><rect width="3" height="1" x="12" y="7"/><rect width="2" height="1" x="3" y="8"/><rect width="1" height="1" x="7" y="8"/><rect width="2" height="1" x="10" y="8"/><rect width="1" height="1" x="5" y="9"/><rect width="1" height="1" x="9" y="9"/><rect width="1" height="1" x="6" y="10"/><rect width="1" height="1" x="8" y="10"/><rect width="1" height="1" x="6" y="11"/><rect width="1" height="1" x="8" y="11"/><rect width="1" height="1" x="7" y="12"/><rect width="1" height="1" x="7" y="13"/><rect width="1" height="1" x="7" y="14"/></g></svg>