<svg xmlns="http://www.w3.org/2000/svg" version="1.1" width="16" height="16" viewBox="0 0 16 16" shape-rendering="crispEdges"><title>Seldon icon, mask, 16 px (hand-hinted)</title><desc>Hand-hinted pixel version, not downsampled. 15 x 15 on the 16 grid, 1 px envelope, 3 px tips, 3 px plus core (approved in round 1).</desc><g id="mask" fill="currentColor"><rect x="7" y="0" width="1" height="1"/><rect x="7" y="1" width="1" height="1"/><rect x="7" y="2" width="1" height="1"/><rect x="6" y="3" width="1" height="1"/><rect x="8" y="3" width="1" height="1"/><rect x="6" y="4" width="1" height="1"/><rect x="8" y="4" width="1" height="1"/><rect x="5" y="5" width="1" height="1"/><rect x="9" y="5" width="1" height="1"/><rect x="3" y="6" width="2" height="1"/><rect x="7" y="6" width="1" height="1"/><rect x="10" y="6" width="2" height="1"/><rect x="0" y="7" width="3" height="1"/><rect x="6" y="7" width="3" height="1"/><rect x="12" y="7" width="3" height="1"/><rect x="3" y="8" width="2" height="1"/><rect x="7" y="8" width="1" height="1"/><rect x="10" y="8" width="2" height="1"/><rect x="5" y="9" width="1" height="1"/><rect x="9" y="9" width="1" height="1"/><rect x="6" y="10" width="1" height="1"/><rect x="8" y="10" width="1" height="1"/><rect x="6" y="11" width="1" height="1"/><rect x="8" y="11" width="1" height="1"/><rect x="7" y="12" width="1" height="1"/><rect x="7" y="13" width="1" height="1"/><rect x="7" y="14" width="1" height="1"/></g></svg>