<?xml version="1.0" encoding="UTF-8"?>
<svg version="1.1" xmlns="http://www.w3.org/2000/svg" width="800" height="600" viewBox="0 0 800 600"><title>Seldon marketplace listing image, light, 800 x 600</title><desc>A8: centred lockup with an empty one-line tagline area below it (see the README for its box); brand background.</desc><rect id="background" width="800" height="600" x="0" y="0" fill="#eef1fb"/><g id="lockup-mark"><path id="lockup-mark-envelope" fill="#0d1326" fill-rule="evenodd" d="M274.44 215.6a67.5 67.5 0 0 0 50.4 50.4 67.6 67.6 0 0 0-40.38 27.62 68 68 0 0 0-10.02 22.78 67.4 67.4 0 0 0-50.4-50.4 67.4 67.4 0 0 0 50.4-50.4m-12.9 37.49A75 75 0 0 1 244.2 266a75 75 0 0 1 30.24 30.24A74.7 74.7 0 0 1 304.69 266a74.6 74.6 0 0 1-30.25-30.24 75 75 0 0 1-12.9 17.33"/><path id="lockup-mark-core" fill="#b86e23" d="m274.44 255.2 10.8 10.8-10.8 10.8-10.8-10.8z"/></g><path id="lockup-wordmark" fill="#0d1326" d="M366.37 290.66q-4.87 0-8.52-1.71t-5.65-4.9-2.01-7.6h8.09q0 3.23 2.2 5.13 2.2 1.91 5.89 1.91 3.55 0 5.62-1.87t2.07-5.03q0-2.37-1.35-4.18t-3.84-2.46l-6.45-1.65q-5.19-1.31-8.22-4.93-3.02-3.62-3.02-8.61 0-6.12 4.01-9.77t10.72-3.65q4.53 0 7.92 1.65 3.39 1.64 5.23 4.63t1.84 7h-8.02q0-2.76-1.91-4.47t-5.06-1.71q-3.09 0-4.9 1.68t-1.81 4.37q0 2.24 1.28 3.69t3.59 2.1l6.64 1.64q5.32 1.32 8.38 5.26 3.06 3.95 3.06 9.41 0 4.27-1.94 7.43-1.94 3.15-5.49 4.9-3.55 1.74-8.35 1.74m39.32 0q-4.61 0-8.02-1.78-3.42-1.77-5.3-5.03-1.87-3.25-1.87-7.66v-8.55q0-4.4 1.87-7.66t5.3-5.03q3.41-1.77 8.02-1.77 4.53 0 7.92 1.77 3.39 1.78 5.26 4.97 1.88 3.19 1.88 7.46v6.58h-22.36v2.49q0 3.69 1.91 5.56 1.9 1.87 5.39 1.87 2.56 0 4.37-.88 1.81-.89 2.14-2.6h8.15q-.85 4.67-4.87 7.46-4.01 2.8-9.79 2.8m-7.3-23.28v1.25l14.46-.07v-1.24q0-3.75-1.84-5.79t-5.32-2.04q-3.62 0-5.46 2.07t-1.84 5.82M450.93 290q-5.4 0-8.65-3.22t-3.26-8.48v-28.87h-11.9V242h20.12v36.1q0 2.04 1.15 3.25 1.16 1.22 3.13 1.22h10.58V290zm30.31.66q-5.26 0-8.52-3.75t-3.25-10.06v-9.8q0-6.38 3.22-10.12 3.22-3.75 8.55-3.75 3.75 0 6.34 1.9 2.6 1.91 3.65 5.33l-.26-8.28V242h8.22v48h-8.02v-6.58q-.99 3.42-3.55 5.33-2.57 1.91-6.38 1.91m3.09-7.1q3.15 0 4.9-1.91 1.74-1.91 1.74-5.39v-8.68q0-3.49-1.74-5.39-1.75-1.91-4.9-1.91t-4.9 1.71-1.74 5.26v9.34q0 3.55 1.74 5.26t4.9 1.71m39.65 7.03q-6.97 0-11.05-3.91t-4.08-10.55v-8.42q0-6.71 4.08-10.59t11.05-3.88 11.04 3.88q4.08 3.88 4.08 10.59v8.42q0 6.64-4.08 10.55t-11.04 3.91m0-7.17q3.29 0 5.09-1.8 1.81-1.81 1.81-5.23v-8.94q0-3.42-1.81-5.23-1.8-1.81-5.09-1.81t-5.1 1.81-1.81 5.23v8.94q0 3.42 1.81 5.23 1.81 1.8 5.1 1.8m24.79 6.58v-36.16h8.02v6.77q.66-3.42 3.22-5.43t6.51-2q5.33 0 8.52 3.55t3.18 9.53V290h-8.21v-22.75q0-3.35-1.75-5.16-1.74-1.81-4.7-1.81-3.09 0-4.83 1.84t-1.74 5.26V290z"/></svg>