<svg xmlns="http://www.w3.org/2000/svg" version="1.1" width="24" height="24" viewBox="0 0 24 24" shape-rendering="crispEdges"><title>Seldon icon, brand colours for light backgrounds, 24 px (hand-hinted)</title><desc>Same pixel grid as the A1 hinted mask; envelope and core coloured.</desc><g id="envelope" fill="#0d1326"><rect x="11" y="2" width="2" height="1"/><rect x="11" y="3" width="2" height="1"/><rect x="11" y="4" width="2" height="1"/><rect x="10" y="5" width="4" height="1"/><rect x="10" y="6" width="1" height="1"/><rect x="13" y="6" width="1" height="1"/><rect x="9" y="7" width="2" height="1"/><rect x="13" y="7" width="2" height="1"/><rect x="8" y="8" width="2" height="1"/><rect x="14" y="8" width="2" height="1"/><rect x="7" y="9" width="2" height="1"/><rect x="15" y="9" width="2" height="1"/><rect x="5" y="10" width="3" height="1"/><rect x="16" y="10" width="3" height="1"/><rect x="2" y="11" width="4" height="1"/><rect x="18" y="11" width="4" height="1"/><rect x="2" y="12" width="4" height="1"/><rect x="18" y="12" width="4" height="1"/><rect x="5" y="13" width="3" height="1"/><rect x="16" y="13" width="3" height="1"/><rect x="7" y="14" width="2" height="1"/><rect x="15" y="14" width="2" height="1"/><rect x="8" y="15" width="2" height="1"/><rect x="14" y="15" width="2" height="1"/><rect x="9" y="16" width="2" height="1"/><rect x="13" y="16" width="2" height="1"/><rect x="10" y="17" width="1" height="1"/><rect x="13" y="17" width="1" height="1"/><rect x="10" y="18" width="4" height="1"/><rect x="11" y="19" width="2" height="1"/><rect x="11" y="20" width="2" height="1"/><rect x="11" y="21" width="2" height="1"/></g><g id="core" fill="#b86e23"><rect x="11" y="10" width="2" height="1"/><rect x="10" y="11" width="4" height="1"/><rect x="10" y="12" width="4" height="1"/><rect x="11" y="13" width="2" height="1"/></g></svg>